ISO-10303-21;
HEADER;
FILE_DESCRIPTION(('Littelfuse NANO2 451/453 SMD fuse (2410)'),'2;1');
FILE_NAME('Fuse_Littelfuse-NANO2-451_453.step','2026-09-09T15:18:33',(''),(''),'gen_fuse_model.py','KiCad project libraries','');
FILE_SCHEMA(('AUTOMOTIVE_DESIGN { 1 0 10303 214 1 1 1 1 }'));
ENDSEC;
DATA;
#1 = APPLICATION_CONTEXT('automotive design');
#2 = APPLICATION_PROTOCOL_DEFINITION('international standard','automotive_design',2000,#1);
#3 = PRODUCT_CONTEXT('',#1,'mechanical');
#4 = PRODUCT('Fuse_Littelfuse-NANO2-451_453','Fuse_Littelfuse-NANO2-451_453','',(#3));
#5 = PRODUCT_DEFINITION_FORMATION('','',#4);
#6 = PRODUCT_DEFINITION_CONTEXT('part definition',#1,'design');
#7 = PRODUCT_DEFINITION('design','',#5,#6);
#8 = PRODUCT_DEFINITION_SHAPE('','',#7);
#9 = PRODUCT_RELATED_PRODUCT_CATEGORY('part','',(#4));
#10 = ( LENGTH_UNIT() NAMED_UNIT(*) SI_UNIT(.MILLI.,.METRE.) );
#11 = ( NAMED_UNIT(*) PLANE_ANGLE_UNIT() SI_UNIT($,.RADIAN.) );
#12 = ( NAMED_UNIT(*) SOLID_ANGLE_UNIT() SI_UNIT($,.STERADIAN.) );
#13 = UNCERTAINTY_MEASURE_WITH_UNIT(LENGTH_MEASURE(1.E-06),#10,'distance_accuracy_value','confusion accuracy');
#14 = ( GEOMETRIC_REPRESENTATION_CONTEXT(3) GLOBAL_UNCERTAINTY_ASSIGNED_CONTEXT((#13)) GLOBAL_UNIT_ASSIGNED_CONTEXT((#10,#11,#12)) REPRESENTATION_CONTEXT('Context','3D Context with UNIT and UNCERTAINTY') );
#15 = DIRECTION('',(1.000000,0.000000,0.000000));
#16 = VECTOR('',#15,1.0);
#17 = CARTESIAN_POINT('',(-3.050000,-1.345000,2.690000));
#18 = LINE('',#17,#16);
#19 = VERTEX_POINT('',#17);
#20 = CARTESIAN_POINT('',(3.050000,-1.345000,2.690000));
#21 = VERTEX_POINT('',#20);
#22 = EDGE_CURVE('',#19,#21,#18,.T.);
#23 = ORIENTED_EDGE('',*,*,#22,.T.);
#24 = DIRECTION('',(0.000000,1.000000,0.000000));
#25 = VECTOR('',#24,1.0);
#26 = LINE('',#20,#25);
#27 = CARTESIAN_POINT('',(3.050000,1.345000,2.690000));
#28 = VERTEX_POINT('',#27);
#29 = EDGE_CURVE('',#21,#28,#26,.T.);
#30 = ORIENTED_EDGE('',*,*,#29,.T.);
#31 = DIRECTION('',(-1.000000,0.000000,0.000000));
#32 = VECTOR('',#31,1.0);
#33 = LINE('',#27,#32);
#34 = CARTESIAN_POINT('',(-3.050000,1.345000,2.690000));
#35 = VERTEX_POINT('',#34);
#36 = EDGE_CURVE('',#28,#35,#33,.T.);
#37 = ORIENTED_EDGE('',*,*,#36,.T.);
#38 = DIRECTION('',(0.000000,-1.000000,0.000000));
#39 = VECTOR('',#38,1.0);
#40 = LINE('',#34,#39);
#41 = EDGE_CURVE('',#35,#19,#40,.T.);
#42 = ORIENTED_EDGE('',*,*,#41,.T.);
#43 = EDGE_LOOP('',(#23,#30,#37,#42));
#44 = FACE_OUTER_BOUND('',#43,.T.);
#45 = DIRECTION('',(0.000000,0.000000,1.000000));
#46 = DIRECTION('',(1.000000,0.000000,0.000000));
#47 = AXIS2_PLACEMENT_3D('',#17,#45,#46);
#48 = PLANE('',#47);
#49 = ADVANCED_FACE('',(#44),#48,.T.);
#50 = DIRECTION('',(0.000000,1.000000,0.000000));
#51 = VECTOR('',#50,1.0);
#52 = CARTESIAN_POINT('',(-3.050000,-1.345000,0.000000));
#53 = LINE('',#52,#51);
#54 = VERTEX_POINT('',#52);
#55 = CARTESIAN_POINT('',(-3.050000,1.345000,0.000000));
#56 = VERTEX_POINT('',#55);
#57 = EDGE_CURVE('',#54,#56,#53,.T.);
#58 = ORIENTED_EDGE('',*,*,#57,.T.);
#59 = DIRECTION('',(1.000000,0.000000,0.000000));
#60 = VECTOR('',#59,1.0);
#61 = LINE('',#55,#60);
#62 = CARTESIAN_POINT('',(3.050000,1.345000,0.000000));
#63 = VERTEX_POINT('',#62);
#64 = EDGE_CURVE('',#56,#63,#61,.T.);
#65 = ORIENTED_EDGE('',*,*,#64,.T.);
#66 = DIRECTION('',(0.000000,-1.000000,0.000000));
#67 = VECTOR('',#66,1.0);
#68 = LINE('',#62,#67);
#69 = CARTESIAN_POINT('',(3.050000,-1.345000,0.000000));
#70 = VERTEX_POINT('',#69);
#71 = EDGE_CURVE('',#63,#70,#68,.T.);
#72 = ORIENTED_EDGE('',*,*,#71,.T.);
#73 = DIRECTION('',(-1.000000,0.000000,0.000000));
#74 = VECTOR('',#73,1.0);
#75 = LINE('',#69,#74);
#76 = EDGE_CURVE('',#70,#54,#75,.T.);
#77 = ORIENTED_EDGE('',*,*,#76,.T.);
#78 = EDGE_LOOP('',(#58,#65,#72,#77));
#79 = FACE_OUTER_BOUND('',#78,.T.);
#80 = DIRECTION('',(0.000000,0.000000,-1.000000));
#81 = DIRECTION('',(0.000000,1.000000,0.000000));
#82 = AXIS2_PLACEMENT_3D('',#52,#80,#81);
#83 = PLANE('',#82);
#84 = ADVANCED_FACE('',(#79),#83,.T.);
#85 = ORIENTED_EDGE('',*,*,#71,.F.);
#86 = DIRECTION('',(0.000000,0.000000,1.000000));
#87 = VECTOR('',#86,1.0);
#88 = LINE('',#62,#87);
#89 = EDGE_CURVE('',#63,#28,#88,.T.);
#90 = ORIENTED_EDGE('',*,*,#89,.T.);
#91 = ORIENTED_EDGE('',*,*,#29,.F.);
#92 = DIRECTION('',(0.000000,0.000000,-1.000000));
#93 = VECTOR('',#92,1.0);
#94 = LINE('',#20,#93);
#95 = EDGE_CURVE('',#21,#70,#94,.T.);
#96 = ORIENTED_EDGE('',*,*,#95,.T.);
#97 = EDGE_LOOP('',(#85,#90,#91,#96));
#98 = FACE_OUTER_BOUND('',#97,.T.);
#99 = DIRECTION('',(1.000000,0.000000,0.000000));
#100 = DIRECTION('',(0.000000,1.000000,0.000000));
#101 = AXIS2_PLACEMENT_3D('',#69,#99,#100);
#102 = PLANE('',#101);
#103 = ADVANCED_FACE('',(#98),#102,.T.);
#104 = DIRECTION('',(0.000000,0.000000,1.000000));
#105 = VECTOR('',#104,1.0);
#106 = LINE('',#52,#105);
#107 = EDGE_CURVE('',#54,#19,#106,.T.);
#108 = ORIENTED_EDGE('',*,*,#107,.T.);
#109 = ORIENTED_EDGE('',*,*,#41,.F.);
#110 = DIRECTION('',(0.000000,0.000000,-1.000000));
#111 = VECTOR('',#110,1.0);
#112 = LINE('',#34,#111);
#113 = EDGE_CURVE('',#35,#56,#112,.T.);
#114 = ORIENTED_EDGE('',*,*,#113,.T.);
#115 = ORIENTED_EDGE('',*,*,#57,.F.);
#116 = EDGE_LOOP('',(#108,#109,#114,#115));
#117 = FACE_OUTER_BOUND('',#116,.T.);
#118 = DIRECTION('',(-1.000000,0.000000,0.000000));
#119 = DIRECTION('',(0.000000,0.000000,1.000000));
#120 = AXIS2_PLACEMENT_3D('',#52,#118,#119);
#121 = PLANE('',#120);
#122 = ADVANCED_FACE('',(#117),#121,.T.);
#123 = ORIENTED_EDGE('',*,*,#113,.F.);
#124 = ORIENTED_EDGE('',*,*,#36,.F.);
#125 = ORIENTED_EDGE('',*,*,#89,.F.);
#126 = ORIENTED_EDGE('',*,*,#64,.F.);
#127 = EDGE_LOOP('',(#123,#124,#125,#126));
#128 = FACE_OUTER_BOUND('',#127,.T.);
#129 = DIRECTION('',(0.000000,1.000000,0.000000));
#130 = DIRECTION('',(0.000000,0.000000,1.000000));
#131 = AXIS2_PLACEMENT_3D('',#55,#129,#130);
#132 = PLANE('',#131);
#133 = ADVANCED_FACE('',(#128),#132,.T.);
#134 = ORIENTED_EDGE('',*,*,#76,.F.);
#135 = ORIENTED_EDGE('',*,*,#95,.F.);
#136 = ORIENTED_EDGE('',*,*,#22,.F.);
#137 = ORIENTED_EDGE('',*,*,#107,.F.);
#138 = EDGE_LOOP('',(#134,#135,#136,#137));
#139 = FACE_OUTER_BOUND('',#138,.T.);
#140 = DIRECTION('',(0.000000,-1.000000,0.000000));
#141 = DIRECTION('',(1.000000,0.000000,0.000000));
#142 = AXIS2_PLACEMENT_3D('',#52,#140,#141);
#143 = PLANE('',#142);
#144 = ADVANCED_FACE('',(#139),#143,.T.);
#145 = CLOSED_SHELL('',(#49,#84,#103,#122,#133,#144));
#146 = MANIFOLD_SOLID_BREP('body',#145);
#147 = COLOUR_RGB('',0.8000,0.7200,0.5800);
#148 = FILL_AREA_STYLE_COLOUR('',#147);
#149 = FILL_AREA_STYLE('',(#148));
#150 = SURFACE_STYLE_FILL_AREA(#149);
#151 = SURFACE_SIDE_STYLE('',(#150));
#152 = SURFACE_STYLE_USAGE(.BOTH.,#151);
#153 = PRESENTATION_STYLE_ASSIGNMENT((#152));
#154 = STYLED_ITEM('color',(#153),#146);
#155 = DIRECTION('',(1.000000,0.000000,0.000000));
#156 = VECTOR('',#155,1.0);
#157 = CARTESIAN_POINT('',(-3.070000,-1.395000,2.720000));
#158 = LINE('',#157,#156);
#159 = VERTEX_POINT('',#157);
#160 = CARTESIAN_POINT('',(-2.150000,-1.395000,2.720000));
#161 = VERTEX_POINT('',#160);
#162 = EDGE_CURVE('',#159,#161,#158,.T.);
#163 = ORIENTED_EDGE('',*,*,#162,.T.);
#164 = DIRECTION('',(0.000000,1.000000,0.000000));
#165 = VECTOR('',#164,1.0);
#166 = LINE('',#160,#165);
#167 = CARTESIAN_POINT('',(-2.150000,1.395000,2.720000));
#168 = VERTEX_POINT('',#167);
#169 = EDGE_CURVE('',#161,#168,#166,.T.);
#170 = ORIENTED_EDGE('',*,*,#169,.T.);
#171 = DIRECTION('',(-1.000000,0.000000,0.000000));
#172 = VECTOR('',#171,1.0);
#173 = LINE('',#167,#172);
#174 = CARTESIAN_POINT('',(-3.070000,1.395000,2.720000));
#175 = VERTEX_POINT('',#174);
#176 = EDGE_CURVE('',#168,#175,#173,.T.);
#177 = ORIENTED_EDGE('',*,*,#176,.T.);
#178 = DIRECTION('',(0.000000,-1.000000,0.000000));
#179 = VECTOR('',#178,1.0);
#180 = LINE('',#174,#179);
#181 = EDGE_CURVE('',#175,#159,#180,.T.);
#182 = ORIENTED_EDGE('',*,*,#181,.T.);
#183 = EDGE_LOOP('',(#163,#170,#177,#182));
#184 = FACE_OUTER_BOUND('',#183,.T.);
#185 = DIRECTION('',(0.000000,0.000000,1.000000));
#186 = DIRECTION('',(1.000000,0.000000,0.000000));
#187 = AXIS2_PLACEMENT_3D('',#157,#185,#186);
#188 = PLANE('',#187);
#189 = ADVANCED_FACE('',(#184),#188,.T.);
#190 = DIRECTION('',(0.000000,1.000000,0.000000));
#191 = VECTOR('',#190,1.0);
#192 = CARTESIAN_POINT('',(-3.070000,-1.395000,-0.020000));
#193 = LINE('',#192,#191);
#194 = VERTEX_POINT('',#192);
#195 = CARTESIAN_POINT('',(-3.070000,1.395000,-0.020000));
#196 = VERTEX_POINT('',#195);
#197 = EDGE_CURVE('',#194,#196,#193,.T.);
#198 = ORIENTED_EDGE('',*,*,#197,.T.);
#199 = DIRECTION('',(1.000000,0.000000,0.000000));
#200 = VECTOR('',#199,1.0);
#201 = LINE('',#195,#200);
#202 = CARTESIAN_POINT('',(-2.150000,1.395000,-0.020000));
#203 = VERTEX_POINT('',#202);
#204 = EDGE_CURVE('',#196,#203,#201,.T.);
#205 = ORIENTED_EDGE('',*,*,#204,.T.);
#206 = DIRECTION('',(0.000000,-1.000000,0.000000));
#207 = VECTOR('',#206,1.0);
#208 = LINE('',#202,#207);
#209 = CARTESIAN_POINT('',(-2.150000,-1.395000,-0.020000));
#210 = VERTEX_POINT('',#209);
#211 = EDGE_CURVE('',#203,#210,#208,.T.);
#212 = ORIENTED_EDGE('',*,*,#211,.T.);
#213 = DIRECTION('',(-1.000000,0.000000,0.000000));
#214 = VECTOR('',#213,1.0);
#215 = LINE('',#209,#214);
#216 = EDGE_CURVE('',#210,#194,#215,.T.);
#217 = ORIENTED_EDGE('',*,*,#216,.T.);
#218 = EDGE_LOOP('',(#198,#205,#212,#217));
#219 = FACE_OUTER_BOUND('',#218,.T.);
#220 = DIRECTION('',(0.000000,0.000000,-1.000000));
#221 = DIRECTION('',(0.000000,1.000000,0.000000));
#222 = AXIS2_PLACEMENT_3D('',#192,#220,#221);
#223 = PLANE('',#222);
#224 = ADVANCED_FACE('',(#219),#223,.T.);
#225 = ORIENTED_EDGE('',*,*,#211,.F.);
#226 = DIRECTION('',(0.000000,0.000000,1.000000));
#227 = VECTOR('',#226,1.0);
#228 = LINE('',#202,#227);
#229 = EDGE_CURVE('',#203,#168,#228,.T.);
#230 = ORIENTED_EDGE('',*,*,#229,.T.);
#231 = ORIENTED_EDGE('',*,*,#169,.F.);
#232 = DIRECTION('',(0.000000,0.000000,-1.000000));
#233 = VECTOR('',#232,1.0);
#234 = LINE('',#160,#233);
#235 = EDGE_CURVE('',#161,#210,#234,.T.);
#236 = ORIENTED_EDGE('',*,*,#235,.T.);
#237 = EDGE_LOOP('',(#225,#230,#231,#236));
#238 = FACE_OUTER_BOUND('',#237,.T.);
#239 = DIRECTION('',(1.000000,0.000000,0.000000));
#240 = DIRECTION('',(0.000000,1.000000,0.000000));
#241 = AXIS2_PLACEMENT_3D('',#209,#239,#240);
#242 = PLANE('',#241);
#243 = ADVANCED_FACE('',(#238),#242,.T.);
#244 = DIRECTION('',(0.000000,0.000000,1.000000));
#245 = VECTOR('',#244,1.0);
#246 = LINE('',#192,#245);
#247 = EDGE_CURVE('',#194,#159,#246,.T.);
#248 = ORIENTED_EDGE('',*,*,#247,.T.);
#249 = ORIENTED_EDGE('',*,*,#181,.F.);
#250 = DIRECTION('',(0.000000,0.000000,-1.000000));
#251 = VECTOR('',#250,1.0);
#252 = LINE('',#174,#251);
#253 = EDGE_CURVE('',#175,#196,#252,.T.);
#254 = ORIENTED_EDGE('',*,*,#253,.T.);
#255 = ORIENTED_EDGE('',*,*,#197,.F.);
#256 = EDGE_LOOP('',(#248,#249,#254,#255));
#257 = FACE_OUTER_BOUND('',#256,.T.);
#258 = DIRECTION('',(-1.000000,0.000000,0.000000));
#259 = DIRECTION('',(0.000000,0.000000,1.000000));
#260 = AXIS2_PLACEMENT_3D('',#192,#258,#259);
#261 = PLANE('',#260);
#262 = ADVANCED_FACE('',(#257),#261,.T.);
#263 = ORIENTED_EDGE('',*,*,#253,.F.);
#264 = ORIENTED_EDGE('',*,*,#176,.F.);
#265 = ORIENTED_EDGE('',*,*,#229,.F.);
#266 = ORIENTED_EDGE('',*,*,#204,.F.);
#267 = EDGE_LOOP('',(#263,#264,#265,#266));
#268 = FACE_OUTER_BOUND('',#267,.T.);
#269 = DIRECTION('',(0.000000,1.000000,0.000000));
#270 = DIRECTION('',(0.000000,0.000000,1.000000));
#271 = AXIS2_PLACEMENT_3D('',#195,#269,#270);
#272 = PLANE('',#271);
#273 = ADVANCED_FACE('',(#268),#272,.T.);
#274 = ORIENTED_EDGE('',*,*,#216,.F.);
#275 = ORIENTED_EDGE('',*,*,#235,.F.);
#276 = ORIENTED_EDGE('',*,*,#162,.F.);
#277 = ORIENTED_EDGE('',*,*,#247,.F.);
#278 = EDGE_LOOP('',(#274,#275,#276,#277));
#279 = FACE_OUTER_BOUND('',#278,.T.);
#280 = DIRECTION('',(0.000000,-1.000000,0.000000));
#281 = DIRECTION('',(1.000000,0.000000,0.000000));
#282 = AXIS2_PLACEMENT_3D('',#192,#280,#281);
#283 = PLANE('',#282);
#284 = ADVANCED_FACE('',(#279),#283,.T.);
#285 = CLOSED_SHELL('',(#189,#224,#243,#262,#273,#284));
#286 = MANIFOLD_SOLID_BREP('cap_l',#285);
#287 = COLOUR_RGB('',0.7400,0.7500,0.7800);
#288 = FILL_AREA_STYLE_COLOUR('',#287);
#289 = FILL_AREA_STYLE('',(#288));
#290 = SURFACE_STYLE_FILL_AREA(#289);
#291 = SURFACE_SIDE_STYLE('',(#290));
#292 = SURFACE_STYLE_USAGE(.BOTH.,#291);
#293 = PRESENTATION_STYLE_ASSIGNMENT((#292));
#294 = STYLED_ITEM('color',(#293),#286);
#295 = DIRECTION('',(1.000000,0.000000,0.000000));
#296 = VECTOR('',#295,1.0);
#297 = CARTESIAN_POINT('',(2.150000,-1.395000,2.720000));
#298 = LINE('',#297,#296);
#299 = VERTEX_POINT('',#297);
#300 = CARTESIAN_POINT('',(3.070000,-1.395000,2.720000));
#301 = VERTEX_POINT('',#300);
#302 = EDGE_CURVE('',#299,#301,#298,.T.);
#303 = ORIENTED_EDGE('',*,*,#302,.T.);
#304 = DIRECTION('',(0.000000,1.000000,0.000000));
#305 = VECTOR('',#304,1.0);
#306 = LINE('',#300,#305);
#307 = CARTESIAN_POINT('',(3.070000,1.395000,2.720000));
#308 = VERTEX_POINT('',#307);
#309 = EDGE_CURVE('',#301,#308,#306,.T.);
#310 = ORIENTED_EDGE('',*,*,#309,.T.);
#311 = DIRECTION('',(-1.000000,0.000000,0.000000));
#312 = VECTOR('',#311,1.0);
#313 = LINE('',#307,#312);
#314 = CARTESIAN_POINT('',(2.150000,1.395000,2.720000));
#315 = VERTEX_POINT('',#314);
#316 = EDGE_CURVE('',#308,#315,#313,.T.);
#317 = ORIENTED_EDGE('',*,*,#316,.T.);
#318 = DIRECTION('',(0.000000,-1.000000,0.000000));
#319 = VECTOR('',#318,1.0);
#320 = LINE('',#314,#319);
#321 = EDGE_CURVE('',#315,#299,#320,.T.);
#322 = ORIENTED_EDGE('',*,*,#321,.T.);
#323 = EDGE_LOOP('',(#303,#310,#317,#322));
#324 = FACE_OUTER_BOUND('',#323,.T.);
#325 = DIRECTION('',(0.000000,0.000000,1.000000));
#326 = DIRECTION('',(1.000000,0.000000,0.000000));
#327 = AXIS2_PLACEMENT_3D('',#297,#325,#326);
#328 = PLANE('',#327);
#329 = ADVANCED_FACE('',(#324),#328,.T.);
#330 = DIRECTION('',(0.000000,1.000000,0.000000));
#331 = VECTOR('',#330,1.0);
#332 = CARTESIAN_POINT('',(2.150000,-1.395000,-0.020000));
#333 = LINE('',#332,#331);
#334 = VERTEX_POINT('',#332);
#335 = CARTESIAN_POINT('',(2.150000,1.395000,-0.020000));
#336 = VERTEX_POINT('',#335);
#337 = EDGE_CURVE('',#334,#336,#333,.T.);
#338 = ORIENTED_EDGE('',*,*,#337,.T.);
#339 = DIRECTION('',(1.000000,0.000000,0.000000));
#340 = VECTOR('',#339,1.0);
#341 = LINE('',#335,#340);
#342 = CARTESIAN_POINT('',(3.070000,1.395000,-0.020000));
#343 = VERTEX_POINT('',#342);
#344 = EDGE_CURVE('',#336,#343,#341,.T.);
#345 = ORIENTED_EDGE('',*,*,#344,.T.);
#346 = DIRECTION('',(0.000000,-1.000000,0.000000));
#347 = VECTOR('',#346,1.0);
#348 = LINE('',#342,#347);
#349 = CARTESIAN_POINT('',(3.070000,-1.395000,-0.020000));
#350 = VERTEX_POINT('',#349);
#351 = EDGE_CURVE('',#343,#350,#348,.T.);
#352 = ORIENTED_EDGE('',*,*,#351,.T.);
#353 = DIRECTION('',(-1.000000,0.000000,0.000000));
#354 = VECTOR('',#353,1.0);
#355 = LINE('',#349,#354);
#356 = EDGE_CURVE('',#350,#334,#355,.T.);
#357 = ORIENTED_EDGE('',*,*,#356,.T.);
#358 = EDGE_LOOP('',(#338,#345,#352,#357));
#359 = FACE_OUTER_BOUND('',#358,.T.);
#360 = DIRECTION('',(0.000000,0.000000,-1.000000));
#361 = DIRECTION('',(0.000000,1.000000,0.000000));
#362 = AXIS2_PLACEMENT_3D('',#332,#360,#361);
#363 = PLANE('',#362);
#364 = ADVANCED_FACE('',(#359),#363,.T.);
#365 = ORIENTED_EDGE('',*,*,#351,.F.);
#366 = DIRECTION('',(0.000000,0.000000,1.000000));
#367 = VECTOR('',#366,1.0);
#368 = LINE('',#342,#367);
#369 = EDGE_CURVE('',#343,#308,#368,.T.);
#370 = ORIENTED_EDGE('',*,*,#369,.T.);
#371 = ORIENTED_EDGE('',*,*,#309,.F.);
#372 = DIRECTION('',(0.000000,0.000000,-1.000000));
#373 = VECTOR('',#372,1.0);
#374 = LINE('',#300,#373);
#375 = EDGE_CURVE('',#301,#350,#374,.T.);
#376 = ORIENTED_EDGE('',*,*,#375,.T.);
#377 = EDGE_LOOP('',(#365,#370,#371,#376));
#378 = FACE_OUTER_BOUND('',#377,.T.);
#379 = DIRECTION('',(1.000000,0.000000,0.000000));
#380 = DIRECTION('',(0.000000,1.000000,0.000000));
#381 = AXIS2_PLACEMENT_3D('',#349,#379,#380);
#382 = PLANE('',#381);
#383 = ADVANCED_FACE('',(#378),#382,.T.);
#384 = DIRECTION('',(0.000000,0.000000,1.000000));
#385 = VECTOR('',#384,1.0);
#386 = LINE('',#332,#385);
#387 = EDGE_CURVE('',#334,#299,#386,.T.);
#388 = ORIENTED_EDGE('',*,*,#387,.T.);
#389 = ORIENTED_EDGE('',*,*,#321,.F.);
#390 = DIRECTION('',(0.000000,0.000000,-1.000000));
#391 = VECTOR('',#390,1.0);
#392 = LINE('',#314,#391);
#393 = EDGE_CURVE('',#315,#336,#392,.T.);
#394 = ORIENTED_EDGE('',*,*,#393,.T.);
#395 = ORIENTED_EDGE('',*,*,#337,.F.);
#396 = EDGE_LOOP('',(#388,#389,#394,#395));
#397 = FACE_OUTER_BOUND('',#396,.T.);
#398 = DIRECTION('',(-1.000000,0.000000,0.000000));
#399 = DIRECTION('',(0.000000,0.000000,1.000000));
#400 = AXIS2_PLACEMENT_3D('',#332,#398,#399);
#401 = PLANE('',#400);
#402 = ADVANCED_FACE('',(#397),#401,.T.);
#403 = ORIENTED_EDGE('',*,*,#393,.F.);
#404 = ORIENTED_EDGE('',*,*,#316,.F.);
#405 = ORIENTED_EDGE('',*,*,#369,.F.);
#406 = ORIENTED_EDGE('',*,*,#344,.F.);
#407 = EDGE_LOOP('',(#403,#404,#405,#406));
#408 = FACE_OUTER_BOUND('',#407,.T.);
#409 = DIRECTION('',(0.000000,1.000000,0.000000));
#410 = DIRECTION('',(0.000000,0.000000,1.000000));
#411 = AXIS2_PLACEMENT_3D('',#335,#409,#410);
#412 = PLANE('',#411);
#413 = ADVANCED_FACE('',(#408),#412,.T.);
#414 = ORIENTED_EDGE('',*,*,#356,.F.);
#415 = ORIENTED_EDGE('',*,*,#375,.F.);
#416 = ORIENTED_EDGE('',*,*,#302,.F.);
#417 = ORIENTED_EDGE('',*,*,#387,.F.);
#418 = EDGE_LOOP('',(#414,#415,#416,#417));
#419 = FACE_OUTER_BOUND('',#418,.T.);
#420 = DIRECTION('',(0.000000,-1.000000,0.000000));
#421 = DIRECTION('',(1.000000,0.000000,0.000000));
#422 = AXIS2_PLACEMENT_3D('',#332,#420,#421);
#423 = PLANE('',#422);
#424 = ADVANCED_FACE('',(#419),#423,.T.);
#425 = CLOSED_SHELL('',(#329,#364,#383,#402,#413,#424));
#426 = MANIFOLD_SOLID_BREP('cap_r',#425);
#427 = COLOUR_RGB('',0.7400,0.7500,0.7800);
#428 = FILL_AREA_STYLE_COLOUR('',#427);
#429 = FILL_AREA_STYLE('',(#428));
#430 = SURFACE_STYLE_FILL_AREA(#429);
#431 = SURFACE_SIDE_STYLE('',(#430));
#432 = SURFACE_STYLE_USAGE(.BOTH.,#431);
#433 = PRESENTATION_STYLE_ASSIGNMENT((#432));
#434 = STYLED_ITEM('color',(#433),#426);
#435 = CARTESIAN_POINT('',(0.,0.,0.));
#436 = DIRECTION('',(0.,0.,1.));
#437 = DIRECTION('',(1.,0.,0.));
#438 = AXIS2_PLACEMENT_3D('',#435,#436,#437);
#439 = ADVANCED_BREP_SHAPE_REPRESENTATION('Fuse_Littelfuse-NANO2-451_453',(#146,#286,#426,#438),#14);
#440 = SHAPE_DEFINITION_REPRESENTATION(#8,#439);
#441 = MECHANICAL_DESIGN_GEOMETRIC_PRESENTATION_REPRESENTATION('',(#154,#294,#434),#14);
ENDSEC;
END-ISO-10303-21;
