#VRML V2.0 utf8
# Same Sky TS10 SMD tactile switch (normally closed) - generated model
# Units: 1 unit = 0.1 inch (2.54 mm); use with KiCad footprint model scale (1 1 1)

Shape {
  appearance Appearance { material Material { diffuseColor 0.12 0.12 0.12  specularColor 0.05 0.05 0.05  ambientIntensity 0.2 shininess 0.2 } }
  geometry IndexedFaceSet {
    coord Coordinate { point [ -1.1811 -0.7480 0.1181, 1.1811 -0.7480 0.1181, 1.1811 0.7480 0.1181, -1.1811 0.7480 0.1181, -1.1811 -0.7480 0.6693, 1.1811 -0.7480 0.6693, 1.1811 0.7480 0.6693, -1.1811 0.7480 0.6693 ] }
    coordIndex [ 0 1 2 3 -1 4 7 6 5 -1 0 4 5 1 -1 1 5 6 2 -1 2 6 7 3 -1 3 7 4 0 -1 ]
    solid TRUE
  }
}
Shape {
  appearance Appearance { material Material { diffuseColor 0.62 0.63 0.65  specularColor 0.6 0.6 0.6    ambientIntensity 0.3 shininess 0.5 } }
  geometry IndexedFaceSet {
    coord Coordinate { point [ -1.1811 -0.7480 0.6693, 1.1811 -0.7480 0.6693, 1.1811 0.7480 0.6693, -1.1811 0.7480 0.6693, -1.1811 -0.7480 1.0236, 1.1811 -0.7480 1.0236, 1.1811 0.7480 1.0236, -1.1811 0.7480 1.0236 ] }
    coordIndex [ 0 1 2 3 -1 4 7 6 5 -1 0 4 5 1 -1 1 5 6 2 -1 2 6 7 3 -1 3 7 4 0 -1 ]
    solid TRUE
  }
}
Shape {
  appearance Appearance { material Material { diffuseColor 0.10 0.22 0.75  specularColor 0.2 0.2 0.3    ambientIntensity 0.25 shininess 0.35 } }
  geometry IndexedFaceSet {
    coord Coordinate { point [ 0.3543 0.0000 1.0236, 0.3423 0.0917 1.0236, 0.3069 0.1772 1.0236, 0.2505 0.2505 1.0236, 0.1772 0.3069 1.0236, 0.0917 0.3423 1.0236, 0.0000 0.3543 1.0236, -0.0917 0.3423 1.0236, -0.1772 0.3069 1.0236, -0.2505 0.2505 1.0236, -0.3069 0.1772 1.0236, -0.3423 0.0917 1.0236, -0.3543 0.0000 1.0236, -0.3423 -0.0917 1.0236, -0.3069 -0.1772 1.0236, -0.2505 -0.2505 1.0236, -0.1772 -0.3069 1.0236, -0.0917 -0.3423 1.0236, -0.0000 -0.3543 1.0236, 0.0917 -0.3423 1.0236, 0.1772 -0.3069 1.0236, 0.2505 -0.2505 1.0236, 0.3069 -0.1772 1.0236, 0.3423 -0.0917 1.0236, 0.3543 0.0000 1.3583, 0.3423 0.0917 1.3583, 0.3069 0.1772 1.3583, 0.2505 0.2505 1.3583, 0.1772 0.3069 1.3583, 0.0917 0.3423 1.3583, 0.0000 0.3543 1.3583, -0.0917 0.3423 1.3583, -0.1772 0.3069 1.3583, -0.2505 0.2505 1.3583, -0.3069 0.1772 1.3583, -0.3423 0.0917 1.3583, -0.3543 0.0000 1.3583, -0.3423 -0.0917 1.3583, -0.3069 -0.1772 1.3583, -0.2505 -0.2505 1.3583, -0.1772 -0.3069 1.3583, -0.0917 -0.3423 1.3583, -0.0000 -0.3543 1.3583, 0.0917 -0.3423 1.3583, 0.1772 -0.3069 1.3583, 0.2505 -0.2505 1.3583, 0.3069 -0.1772 1.3583, 0.3423 -0.0917 1.3583 ] }
    coordIndex [ 0 1 2 3 4 5 6 7 8 9 10 11 12 13 14 15 16 17 18 19 20 21 22 23 -1 47 46 45 44 43 42 41 40 39 38 37 36 35 34 33 32 31 30 29 28 27 26 25 24 -1 0 1 25 24 -1 1 2 26 25 -1 2 3 27 26 -1 3 4 28 27 -1 4 5 29 28 -1 5 6 30 29 -1 6 7 31 30 -1 7 8 32 31 -1 8 9 33 32 -1 9 10 34 33 -1 10 11 35 34 -1 11 12 36 35 -1 12 13 37 36 -1 13 14 38 37 -1 14 15 39 38 -1 15 16 40 39 -1 16 17 41 40 -1 17 18 42 41 -1 18 19 43 42 -1 19 20 44 43 -1 20 21 45 44 -1 21 22 46 45 -1 22 23 47 46 -1 23 0 24 47 -1 ]
    solid TRUE
  }
}
Shape {
  appearance Appearance { material Material { diffuseColor 0.78 0.78 0.80  specularColor 0.7 0.7 0.7    ambientIntensity 0.3 shininess 0.6 } }
  geometry IndexedFaceSet {
    coord Coordinate { point [ -1.5551 -0.2756 0.0000, -1.0236 -0.2756 0.0000, -1.0236 0.2756 0.0000, -1.5551 0.2756 0.0000, -1.5551 -0.2756 0.1102, -1.0236 -0.2756 0.1102, -1.0236 0.2756 0.1102, -1.5551 0.2756 0.1102 ] }
    coordIndex [ 0 1 2 3 -1 4 7 6 5 -1 0 4 5 1 -1 1 5 6 2 -1 2 6 7 3 -1 3 7 4 0 -1 ]
    solid TRUE
  }
}
Shape {
  appearance Appearance { material Material { diffuseColor 0.78 0.78 0.80  specularColor 0.7 0.7 0.7    ambientIntensity 0.3 shininess 0.6 } }
  geometry IndexedFaceSet {
    coord Coordinate { point [ 1.0236 -0.2756 0.0000, 1.5551 -0.2756 0.0000, 1.5551 0.2756 0.0000, 1.0236 0.2756 0.0000, 1.0236 -0.2756 0.1102, 1.5551 -0.2756 0.1102, 1.5551 0.2756 0.1102, 1.0236 0.2756 0.1102 ] }
    coordIndex [ 0 1 2 3 -1 4 7 6 5 -1 0 4 5 1 -1 1 5 6 2 -1 2 6 7 3 -1 3 7 4 0 -1 ]
    solid TRUE
  }
}
